<svg width="24" height="24" viewBox="0 0 24 24" fill="none" xmlns="http://www.w3.org/2000/svg">
<path d="M18.6667 10.6667C19.12 10.6667 19.56 10.72 20 10.7867V4.36L10 0L0 4.36V10.9067C0 16.96 4.26667 22.6267 10 24C10.7333 23.8267 11.44 23.5733 12.1333 23.2667C11.2133 21.96 10.6667 20.3733 10.6667 18.6667C10.6667 14.2533 14.2533 10.6667 18.6667 10.6667Z" fill="black"/>
<path d="M18.6667 13.3333C15.72 13.3333 13.3334 15.72 13.3334 18.6667C13.3334 21.6133 15.72 24 18.6667 24C21.6134 24 24 21.6133 24 18.6667C24 15.72 21.6134 13.3333 18.6667 13.3333ZM18.6667 15.1733C19.4934 15.1733 20.16 15.8533 20.16 16.6667C20.16 17.48 19.48 18.16 18.6667 18.16C17.8534 18.16 17.1734 17.48 17.1734 16.6667C17.1734 15.8533 17.84 15.1733 18.6667 15.1733ZM18.6667 22.3333C17.4267 22.3333 16.3467 21.72 15.68 20.7733C15.7467 19.8133 17.6934 19.3333 18.6667 19.3333C19.64 19.3333 21.5867 19.8133 21.6534 20.7733C20.9867 21.72 19.9067 22.3333 18.6667 22.3333Z" fill="black"/>
</svg>
