<svg width="104" height="105" viewBox="0 0 104 105" fill="none" xmlns="http://www.w3.org/2000/svg">
<path d="M41 60.43V36H48.8358H63.3089V67.0643H48.8358L41 60.43Z" fill="#131416"/>
<path d="M48.8358 67.0643L41 60.43V36H48.8358M48.8358 67.0643V36M48.8358 67.0643H63.3089V36H48.8358" stroke="white" stroke-width="0.47175"/>
<path d="M42.1898 55.1678V37.2526H47.2465V59.5488L42.1898 55.1678Z" fill="#131416" stroke="white" stroke-width="0.47175"/>
<path d="M62.4166 37.2526H49.9236V66.0623H62.4166V37.2526Z" fill="#131416" stroke="white" stroke-width="0.47175"/>
<path d="M60.6317 37.2526H57.6572V66.0623H60.6317V37.2526Z" fill="#131416" stroke="white" stroke-width="0.47175"/>
<path d="M91.2508 60.6886L91.2993 59.8481C91.5439 59.8123 91.7613 59.7376 91.9515 59.6239C92.1416 59.5124 92.3038 59.3721 92.4382 59.203C92.5748 59.0364 92.6808 58.8486 92.7563 58.6399C92.8318 58.4312 92.8762 58.2116 92.8895 57.9811C92.9137 57.5608 92.8295 57.174 92.6368 56.8206C92.4439 56.4694 92.1465 56.1814 91.7446 55.9564C91.3426 55.7338 90.8411 55.6051 90.2401 55.5705C89.6391 55.5358 89.1261 55.606 88.7012 55.781C88.2761 55.9583 87.9476 56.2102 87.7157 56.5369C87.4836 56.8659 87.3555 57.2404 87.3312 57.6607C87.318 57.8912 87.3368 58.1144 87.3878 58.3305C87.4389 58.5465 87.5215 58.7451 87.6357 58.9262C87.7521 59.1098 87.8983 59.2678 88.0743 59.4004C88.2524 59.5353 88.4598 59.6345 88.6964 59.6981L88.648 60.5386C88.2969 60.4549 87.9861 60.3213 87.7155 60.138C87.445 59.9546 87.2186 59.733 87.0363 59.4732C86.8564 59.2134 86.7244 58.9258 86.6406 58.6104C86.5566 58.2973 86.5248 57.9656 86.5449 57.6154C86.5791 57.0234 86.754 56.5053 87.0698 56.061C87.3856 55.6168 87.8177 55.2778 88.3662 55.0442C88.9146 54.8106 89.5549 54.7149 90.287 54.7571C91.019 54.7993 91.6441 54.9679 92.1621 55.263C92.6801 55.5581 93.0704 55.9444 93.333 56.422C93.5957 56.8996 93.7099 57.4344 93.6758 58.0264C93.6556 58.3766 93.5858 58.7025 93.4664 59.0039C93.3469 59.3076 93.1817 59.578 92.9708 59.8152C92.7622 60.0526 92.5129 60.2468 92.2231 60.3978C91.9356 60.549 91.6115 60.6459 91.2508 60.6886Z" fill="white"/>
<path d="M83.9503 66.0337C84.1144 65.5588 84.3607 65.1854 84.6894 64.9134C85.0194 64.6443 85.4058 64.4821 85.8488 64.4268C86.2931 64.3744 86.7677 64.4354 87.2725 64.6098C87.7774 64.7842 88.1905 65.0299 88.512 65.3469C88.8349 65.6668 89.0471 66.0298 89.1486 66.436C89.2515 66.8451 89.2261 67.2721 89.0724 67.7171C88.9837 67.9738 88.8533 68.2125 88.6813 68.4332C88.5093 68.6539 88.2915 68.8337 88.0281 68.9726C87.7667 69.1121 87.4578 69.1886 87.1012 69.2019C86.7446 69.2152 86.3364 69.1424 85.8764 68.9835L85.5556 68.8726L86.8681 65.0735L87.5227 65.2996L86.4762 68.3287C86.7543 68.4248 87.0216 68.4549 87.2783 68.419C87.5342 68.3853 87.7603 68.2886 87.9567 68.129C88.1524 67.9715 88.2975 67.7559 88.3921 67.4821C88.4963 67.1805 88.5116 66.8936 88.438 66.6216C88.3658 66.3524 88.2313 66.1179 88.0345 65.9182C87.8377 65.7186 87.6034 65.5718 87.3318 65.4779L86.8954 65.3272C86.5232 65.1986 86.1855 65.1537 85.8823 65.1927C85.5805 65.2345 85.3223 65.3476 85.1078 65.5321C84.8953 65.7173 84.7363 65.9628 84.6306 66.2687C84.5618 66.4677 84.5276 66.657 84.5278 66.8366C84.5294 67.0192 84.5665 67.1888 84.6392 67.3457C84.7141 67.5032 84.826 67.6436 84.975 67.7669L84.5169 68.4276C84.2953 68.2648 84.1219 68.06 83.9964 67.8132C83.8731 67.5671 83.8053 67.2922 83.7928 66.9886C83.7825 66.6857 83.835 66.3674 83.9503 66.0337Z" fill="white"/>
<path d="M83.5125 73.2851L80.8505 71.6256L81.2744 70.9458L85.6994 73.7043L85.2899 74.3611L84.5985 73.9301L84.5626 73.9877C84.7227 74.2315 84.805 74.5015 84.8097 74.7978C84.8163 75.0953 84.7154 75.4111 84.5071 75.7453C84.3203 76.0449 84.0954 76.2687 83.8324 76.4168C83.5713 76.5661 83.278 76.6259 82.9524 76.5963C82.6288 76.5679 82.2787 76.4364 81.9023 76.2017L79.0906 74.4489L79.5144 73.769L82.28 75.4931C82.6277 75.7098 82.9547 75.7884 83.2613 75.7287C83.5697 75.6703 83.8221 75.4836 84.0185 75.1687C84.1537 74.9516 84.2276 74.7283 84.2401 74.4987C84.2513 74.271 84.1972 74.052 84.0777 73.8415C83.9583 73.631 83.7698 73.4455 83.5125 73.2851Z" fill="white"/>
<path d="M78.0313 82.5529L77.5558 82.0682L79.4848 80.1758L79.9603 80.6605L78.0313 82.5529ZM80.273 82.1039L79.701 82.6649L76.2205 79.1171C76.062 78.9555 75.9197 78.8574 75.7936 78.8225C75.6675 78.7909 75.5538 78.7978 75.4526 78.8433C75.3513 78.8919 75.2586 78.9574 75.1746 79.0399C75.1116 79.1017 75.0631 79.1556 75.029 79.2017C74.9966 79.2494 74.9706 79.2876 74.9511 79.3162L74.3308 78.9166C74.3553 78.864 74.3951 78.7963 74.4504 78.7136C74.504 78.6293 74.5841 78.5349 74.6907 78.4303C74.8523 78.2718 75.0447 78.1512 75.2679 78.0685C75.4896 77.9874 75.721 77.968 75.9623 78.0103C76.2019 78.0543 76.4279 78.1845 76.6403 78.4009L80.273 82.1039Z" fill="white"/>
<path d="M70.8765 81.2218L73.7705 85.5594L73.1267 85.989L72.6895 85.3338L72.6444 85.364C72.7085 85.6313 72.6816 85.9009 72.5637 86.1728C72.4458 86.4446 72.2569 86.6672 71.9971 86.8405C71.9482 86.8732 71.8863 86.9131 71.8117 86.9602C71.737 87.0073 71.6796 87.0415 71.6394 87.0629L71.1872 86.3851C71.2136 86.3757 71.271 86.3496 71.3595 86.3069C71.4473 86.2673 71.5355 86.218 71.624 86.159C71.8349 86.0183 71.9936 85.8485 72.1002 85.6494C72.2063 85.4536 72.2558 85.2464 72.2488 85.028C72.2412 84.8127 72.172 84.6071 72.0414 84.4113L70.21 81.6664L70.8765 81.2218Z" fill="white"/>
<path d="M63.2348 84.8099C63.5406 84.6848 63.8417 84.6288 64.1381 84.6421C64.4354 84.6574 64.7023 84.745 64.9389 84.905C65.1764 85.067 65.3594 85.3051 65.4879 85.6193C65.6011 85.8958 65.6383 86.1422 65.5997 86.3586C65.5619 86.577 65.472 86.7727 65.33 86.9457C65.1881 87.1187 65.017 87.2743 64.8167 87.4125C64.6153 87.5536 64.4085 87.6847 64.1963 87.8057C63.9185 87.9634 63.6923 88.0889 63.5178 88.1823C63.3421 88.2787 63.2221 88.3681 63.1581 88.4506C63.0919 88.5339 63.0832 88.6352 63.1321 88.7546L63.1424 88.7798C63.2692 89.0898 63.4526 89.296 63.6925 89.3983C63.9304 89.5015 64.22 89.4833 64.5614 89.3436C64.9154 89.1987 65.1613 89.0077 65.299 88.7704C65.4366 88.5331 65.5103 88.3098 65.52 88.1004L66.3267 88.0638C66.321 88.4085 66.2468 88.7054 66.1042 88.9545C65.9603 89.2065 65.777 89.416 65.5543 89.5829C65.3304 89.7528 65.097 89.8874 64.854 89.9868C64.699 90.0502 64.5132 90.1042 64.2967 90.1488C64.0789 90.1963 63.8527 90.2021 63.6179 90.1661C63.381 90.131 63.153 90.025 62.9339 89.8481C62.7148 89.6712 62.5268 89.3911 62.37 89.0077L61.0691 85.828L61.8106 85.5246L62.078 86.1782L62.1157 86.1627C62.1231 86.0374 62.161 85.8911 62.2295 85.7237C62.2979 85.5563 62.4124 85.3909 62.5729 85.2274C62.7335 85.0639 62.9541 84.9247 63.2348 84.8099ZM63.3942 85.5223C63.1009 85.6423 62.8773 85.801 62.7234 85.9985C62.5673 86.1968 62.4753 86.4081 62.4472 86.6323C62.417 86.8574 62.443 87.0705 62.5253 87.2716L62.803 87.9503C62.819 87.8997 62.874 87.8369 62.9679 87.7617C63.0607 87.6896 63.1715 87.6137 63.3003 87.5341C63.4279 87.4574 63.5532 87.3841 63.6762 87.3143C63.7979 87.2473 63.8965 87.1923 63.9718 87.1493C64.1542 87.0453 64.3177 86.9308 64.4621 86.8056C64.6053 86.6835 64.7055 86.5459 64.7627 86.3929C64.8187 86.2428 64.8081 86.0735 64.731 85.885C64.6256 85.6274 64.4506 85.4716 64.206 85.4176C63.9601 85.3665 63.6895 85.4015 63.3942 85.5223Z" fill="white"/>
<path d="M57.5194 93.2872L56.3873 86.4274L57.1778 86.2969L58.3099 93.1567L57.5194 93.2872Z" fill="white"/>
<path d="M43.4835 91.8967L43.3313 92.6279L38.2263 91.5652L38.3785 90.834L40.5189 91.2796L41.7836 85.2041L42.6079 85.3756L41.3432 91.4511L43.4835 91.8967Z" fill="white"/>
<path d="M34.0804 81.5051C34.5289 81.7316 34.8657 82.026 35.091 82.3883C35.3132 82.7515 35.4219 83.1563 35.417 83.6027C35.4091 84.05 35.2847 84.512 35.0439 84.9888C34.8031 85.4655 34.504 85.8419 34.1466 86.1177C33.7862 86.3946 33.3979 86.556 32.9817 86.6018C32.5625 86.6487 32.1427 86.566 31.7226 86.3538C31.4801 86.2313 31.2612 86.07 31.0656 85.8698C30.8701 85.6696 30.7213 85.4297 30.6192 85.1499C30.5161 84.8721 30.4819 84.5557 30.5168 84.2006C30.5516 83.8455 30.6787 83.4507 30.8981 83.0164L31.0512 82.7134L34.6389 84.5256L34.3267 85.1438L31.4662 83.6989C31.3335 83.9615 31.2677 84.2224 31.2687 84.4815C31.2676 84.7396 31.3329 84.9767 31.4646 85.1928C31.5943 85.4079 31.7885 85.5808 32.047 85.7114C32.3319 85.8553 32.6141 85.909 32.8936 85.8727C33.17 85.8374 33.4204 85.7357 33.6448 85.5676C33.8692 85.3995 34.0462 85.1872 34.1757 84.9306L34.3839 84.5185C34.5615 84.167 34.6514 83.8384 34.6536 83.5327C34.6528 83.2281 34.5755 82.957 34.4216 82.7196C34.2667 82.4841 34.0448 82.2934 33.7559 82.1475C33.5681 82.0526 33.3851 81.9932 33.2071 81.9691C33.026 81.9461 32.8528 81.9601 32.6877 82.0111C32.5214 82.064 32.3672 82.156 32.225 82.287L31.6321 81.7441C31.8232 81.5465 32.0495 81.4022 32.311 81.3111C32.5714 81.2221 32.8529 81.1919 33.1555 81.2205C33.457 81.251 33.7653 81.3459 34.0804 81.5051Z" fill="white"/>
<path d="M28.0116 76.7552C28.3878 77.0673 28.6381 77.425 28.7624 77.828C28.8868 78.2311 28.8928 78.6493 28.7804 79.0824C28.6681 79.5156 28.4457 79.9325 28.1134 80.3331C27.7752 80.7407 27.4019 81.0383 26.9935 81.2258C26.5818 81.4136 26.168 81.4835 25.7521 81.4354C25.333 81.3877 24.9423 81.2135 24.58 80.913C24.2978 80.6789 24.0868 80.4156 23.9471 80.1233C23.8074 79.8309 23.7432 79.5307 23.7547 79.2226C23.7662 78.9146 23.8586 78.6207 24.0318 78.341L24.6484 78.8525C24.5437 79.0744 24.5139 79.3231 24.5588 79.5986C24.6006 79.8744 24.7573 80.125 25.029 80.3504C25.2694 80.5498 25.5322 80.6619 25.8174 80.6868C26.0994 80.712 26.3848 80.6533 26.6737 80.5106C26.9594 80.3683 27.228 80.1456 27.4794 79.8425C27.7366 79.5325 27.9118 79.222 28.005 78.9112C28.0965 78.5989 28.1053 78.3047 28.0313 78.0287C27.9557 77.7513 27.7959 77.5114 27.552 77.3091C27.3918 77.1762 27.2232 77.0834 27.0464 77.0308C26.8695 76.9781 26.6924 76.9665 26.5151 76.9959C26.3378 77.0252 26.1694 77.0972 26.0096 77.2117L25.393 76.7002C25.6244 76.4922 25.8876 76.3503 26.1827 76.2746C26.4747 76.1992 26.7792 76.199 27.0964 76.2739C27.4104 76.3491 27.7155 76.5096 28.0116 76.7552Z" fill="white"/>
<path d="M21.3275 73.7417L23.8184 71.8351L24.3053 72.4714L18.7844 76.6972L18.2974 76.061L20.3246 74.5093L20.2834 74.4554C19.9952 74.522 19.714 74.5065 19.4396 74.4087C19.1621 74.3104 18.8988 74.0987 18.6498 73.7734C18.4339 73.4912 18.3013 73.2008 18.2522 72.902C18.2013 72.6047 18.2471 72.3089 18.3895 72.0146C18.5288 71.7199 18.7763 71.4364 19.1322 71.164L21.7632 69.1502L22.2502 69.7864L19.6622 71.7672C19.3334 72.0189 19.1444 72.299 19.0954 72.6073C19.0432 72.9151 19.1319 73.2191 19.3616 73.5193C19.5212 73.7277 19.7083 73.8809 19.9229 73.9789C20.1362 74.075 20.3637 74.106 20.6055 74.072C20.846 74.0361 21.0866 73.9261 21.3275 73.7417Z" fill="white"/>
<path d="M12.5483 47.6691L12.5932 48.5098C12.3541 48.5724 12.1463 48.6708 11.9699 48.8049C11.7934 48.9367 11.6476 49.0941 11.5328 49.277C11.4155 49.4578 11.3309 49.6561 11.279 49.8719C11.2271 50.0878 11.2073 50.3109 11.2196 50.5414C11.2421 50.9618 11.3687 51.3369 11.5994 51.6668C11.8299 51.9945 12.1574 52.2478 12.5817 52.4268C13.0059 52.6036 13.5186 52.6759 14.1198 52.6437C14.7209 52.6116 15.223 52.485 15.6259 52.264C16.0287 52.0408 16.3273 51.754 16.5216 51.4036C16.7158 51.051 16.8017 50.6645 16.7792 50.2441C16.7669 50.0136 16.7234 49.7938 16.6487 49.5848C16.5741 49.3757 16.47 49.1875 16.3364 49.0201C16.2004 48.8506 16.0376 48.7098 15.848 48.5975C15.656 48.4831 15.439 48.4075 15.1967 48.3706L15.1518 47.5298C15.51 47.5741 15.8337 47.6724 16.1229 47.8247C16.412 47.9769 16.6616 48.1721 16.8715 48.4102C17.0791 48.6484 17.2421 48.9196 17.3604 49.2238C17.4785 49.5257 17.5469 49.8518 17.5657 50.2021C17.5973 50.7942 17.4808 51.3285 17.2162 51.805C16.9516 52.2815 16.5597 52.6662 16.0405 52.9592C15.5212 53.2521 14.8955 53.4182 14.1633 53.4573C13.4311 53.4965 12.7912 53.3981 12.2437 53.1622C11.6962 52.9263 11.2655 52.5856 10.9516 52.14C10.6376 51.6945 10.4648 51.1756 10.4332 50.5835C10.4144 50.2332 10.4477 49.9017 10.533 49.5889C10.6181 49.2738 10.7523 48.9867 10.9357 48.7276C11.1167 48.4686 11.3429 48.248 11.6142 48.0658C11.8832 47.8837 12.1946 47.7514 12.5483 47.6691Z" fill="white"/>
<path d="M19.2125 41.5528C19.102 42.043 18.8986 42.4414 18.6021 42.7481C18.3039 43.0521 17.9378 43.2561 17.5037 43.3601C17.068 43.4615 16.5895 43.4534 16.0685 43.336C15.5474 43.2186 15.1096 43.0202 14.755 42.7407C14.3986 42.4586 14.1475 42.1213 14.0016 41.7288C13.8541 41.3337 13.832 40.9065 13.9355 40.4472C13.9952 40.1823 14.0983 39.9306 14.2448 39.6922C14.3914 39.4538 14.5878 39.251 14.8343 39.0838C15.0786 38.9161 15.3772 38.8059 15.7301 38.7532C16.083 38.7005 16.4968 38.7276 16.9715 38.8346L17.3027 38.9092L16.4191 42.8304L15.7435 42.6781L16.4479 39.5518C16.1609 39.4871 15.8919 39.4868 15.6408 39.5509C15.3902 39.6127 15.1762 39.7339 14.9987 39.9143C14.8216 40.0924 14.7013 40.3228 14.6376 40.6054C14.5674 40.9167 14.584 41.2035 14.6873 41.4657C14.7889 41.7253 14.9486 41.9434 15.1663 42.12C15.384 42.2967 15.633 42.4166 15.9134 42.4798L16.3638 42.5813C16.748 42.6678 17.0886 42.675 17.3856 42.6027C17.6809 42.5277 17.9249 42.3867 18.1178 42.1796C18.3084 41.972 18.4393 41.7103 18.5104 41.3946C18.5567 41.1893 18.5698 40.9974 18.5497 40.8188C18.5279 40.6376 18.4721 40.4731 18.3825 40.3253C18.2906 40.177 18.1638 40.0498 18.0021 39.9438L18.3842 39.2365C18.6224 39.3737 18.8176 39.558 18.9696 39.7894C19.1193 40.0204 19.2172 40.286 19.2632 40.5864C19.307 40.8863 19.2901 41.2084 19.2125 41.5528Z" fill="white"/>
<path d="M18.8464 34.2938L21.6756 35.6487L21.3295 36.3713L16.6265 34.1191L16.9608 33.421L17.6957 33.7729L17.725 33.7117C17.539 33.4871 17.4273 33.2278 17.3899 32.9339C17.3504 32.6389 17.4157 32.3139 17.5858 31.9587C17.7383 31.6403 17.9371 31.3929 18.1821 31.2167C18.425 31.0394 18.7099 30.9475 19.0368 30.9409C19.3616 30.9334 19.7241 31.0254 20.1241 31.217L23.1125 32.6481L22.7665 33.3707L19.8271 31.9631C19.4576 31.7861 19.1239 31.7442 18.8258 31.8374C18.5257 31.9295 18.2955 32.143 18.1352 32.4778C18.0248 32.7084 17.976 32.9385 17.9891 33.1681C18.0031 33.3956 18.0811 33.6074 18.2231 33.8034C18.3651 33.9994 18.5729 34.1629 18.8464 34.2938Z" fill="white"/>
<path d="M23.2661 24.4772L23.7923 24.9064L22.0844 27.0005L21.5582 26.5714L23.2661 24.4772ZM21.0879 25.1715L21.5942 24.5506L25.4458 27.6917C25.6212 27.8347 25.7734 27.9166 25.9026 27.9372C26.0315 27.9547 26.1437 27.9353 26.2393 27.8789C26.3346 27.8194 26.4194 27.744 26.4938 27.6528C26.5496 27.5844 26.5919 27.5254 26.6206 27.4758C26.6476 27.4248 26.6692 27.384 26.6854 27.3534L27.3461 27.682C27.3276 27.737 27.2954 27.8086 27.2497 27.8969C27.2057 27.9866 27.1366 28.0894 27.0422 28.2051C26.8991 28.3805 26.7212 28.5216 26.5085 28.6285C26.2972 28.7336 26.0693 28.7785 25.8249 28.7631C25.5818 28.746 25.3428 28.6416 25.1078 28.4499L21.0879 25.1715Z" fill="white"/>
<path d="M30.5192 25.0073L27.1632 21.0164L27.7556 20.5182L28.2625 21.121L28.3041 21.0861C28.2108 20.8274 28.2077 20.5565 28.2948 20.2733C28.3819 19.9901 28.545 19.7479 28.784 19.5469C28.8291 19.5091 28.8861 19.4626 28.9551 19.4075C29.0241 19.3524 29.0774 19.3121 29.115 19.2864L29.6394 19.91C29.6142 19.9223 29.56 19.9545 29.4768 20.0068C29.3938 20.0558 29.3117 20.1146 29.2302 20.183C29.0362 20.3462 28.8973 20.5325 28.8133 20.7421C28.7296 20.9485 28.7033 21.1599 28.7344 21.3762C28.7658 21.5894 28.8572 21.786 29.0087 21.9662L31.1324 24.4917L30.5192 25.0073Z" fill="white"/>
<path d="M37.7209 20.5981C37.4308 20.7564 37.1378 20.8453 36.8417 20.865C36.5446 20.8827 36.2696 20.8252 36.0167 20.6924C35.7628 20.5577 35.5545 20.3413 35.3919 20.0433C35.2489 19.781 35.1846 19.5402 35.199 19.321C35.2124 19.0997 35.28 18.8952 35.402 18.7076C35.5239 18.5199 35.6767 18.3463 35.8604 18.1868C36.045 18.0243 36.236 17.8711 36.4334 17.7273C36.6921 17.5398 36.9029 17.39 37.066 17.2778C37.23 17.1626 37.3393 17.0604 37.3939 16.9714C37.4504 16.8812 37.4478 16.7796 37.386 16.6663L37.373 16.6425C37.2126 16.3484 37.0075 16.1638 36.7577 16.0887C36.5099 16.0125 36.224 16.0627 35.9002 16.2393C35.5644 16.4225 35.3412 16.6396 35.2307 16.8907C35.1202 17.1417 35.0717 17.3718 35.0852 17.581L34.2876 17.7067C34.2551 17.3635 34.2959 17.0603 34.41 16.7969C34.5251 16.5305 34.684 16.302 34.8869 16.1115C35.0906 15.9178 35.3077 15.7582 35.5382 15.6324C35.6852 15.5522 35.8639 15.478 36.0741 15.4097C36.2853 15.3384 36.5095 15.3076 36.7468 15.3173C36.9862 15.326 37.2245 15.4061 37.4618 15.5576C37.6992 15.7092 37.917 15.9667 38.1154 16.3303L39.7605 19.3464L39.0572 19.73L38.719 19.1101L38.6833 19.1296C38.6898 19.255 38.6683 19.4046 38.6188 19.5786C38.5693 19.7525 38.4738 19.9296 38.3324 20.1099C38.191 20.2902 37.9872 20.4529 37.7209 20.5981ZM37.4836 19.9078C37.7617 19.7561 37.9664 19.5735 38.0975 19.3602C38.2306 19.1458 38.2987 18.9256 38.3018 18.6997C38.3068 18.4726 38.2573 18.2637 38.1533 18.073L37.8022 17.4293C37.7919 17.4813 37.7442 17.5498 37.6591 17.6349C37.5749 17.7169 37.4733 17.8046 37.354 17.898C37.2357 17.9883 37.1193 18.075 37.0048 18.1581C36.8912 18.2381 36.7993 18.3037 36.7293 18.3548C36.5595 18.4783 36.4097 18.6103 36.2801 18.7506C36.1513 18.8879 36.0669 19.0357 36.027 19.1942C35.988 19.3495 36.0173 19.5166 36.1148 19.6954C36.2481 19.9398 36.4393 20.0752 36.6884 20.1018C36.9384 20.1253 37.2034 20.0606 37.4836 19.9078Z" fill="white"/>
<path d="M42.4656 11.5399L44.3494 18.2324L43.5782 18.4495L41.6944 11.757L42.4656 11.5399Z" fill="white"/>
<path d="M63.8189 12.8101L64.0221 12.0914L69.0398 13.5102L68.8366 14.2289L66.7328 13.6341L65.0443 19.6056L64.2341 19.3766L65.9227 13.405L63.8189 12.8101Z" fill="white"/>
<path d="M72.4677 23.8366C72.0362 23.5791 71.7209 23.2617 71.5217 22.8845C71.3255 22.5066 71.2456 22.0951 71.2818 21.6502C71.3211 21.2046 71.4776 20.7524 71.7514 20.2938C72.0251 19.8351 72.3499 19.4808 72.7258 19.2307C73.1048 18.9798 73.5035 18.8462 73.9219 18.8296C74.3433 18.8124 74.7562 18.9243 75.1604 19.1656C75.3936 19.3048 75.6007 19.4811 75.7817 19.6945C75.9627 19.9079 76.0943 20.1578 76.1765 20.444C76.2598 20.7284 76.2716 21.0464 76.2119 21.3982C76.1522 21.75 75.9976 22.1348 75.7483 22.5526L75.5743 22.8442L72.1228 20.7843L72.4777 20.1896L75.2296 21.8319C75.3804 21.5793 75.4644 21.3237 75.4816 21.0651C75.5008 20.8078 75.4523 20.5667 75.3361 20.3418C75.2219 20.1181 75.0404 19.932 74.7916 19.7836C74.5176 19.62 74.2399 19.5466 73.9585 19.5631C73.6803 19.5789 73.4233 19.6628 73.1877 19.8147C72.9521 19.9666 72.7606 20.166 72.6133 20.4128L72.3767 20.8093C72.1749 21.1474 72.0621 21.4689 72.0384 21.7736C72.0177 22.0776 72.0758 22.3534 72.2126 22.6011C72.3506 22.8469 72.5586 23.0527 72.8365 23.2186C73.0172 23.3264 73.1955 23.3986 73.3715 23.435C73.5505 23.4707 73.7242 23.4689 73.8925 23.4297C74.062 23.3886 74.2223 23.3077 74.3734 23.187L74.9267 23.7702C74.7222 23.9539 74.4864 24.082 74.2191 24.1544C73.953 24.2249 73.6701 24.2353 73.3703 24.1855C73.0717 24.1338 72.7708 24.0175 72.4677 23.8366Z" fill="white"/>
<path d="M78.188 29.0044C77.8347 28.6666 77.6101 28.2923 77.5144 27.8814C77.4187 27.4706 77.4421 27.0531 77.5846 26.6289C77.7272 26.2047 77.9783 25.8044 78.3379 25.4282C78.7039 25.0453 79.0972 24.7748 79.5178 24.6164C79.9416 24.458 80.3593 24.4174 80.7708 24.4945C81.1856 24.5716 81.5631 24.7728 81.9033 25.0981C82.1684 25.3514 82.3603 25.6288 82.4792 25.9303C82.598 26.2318 82.6409 26.5357 82.6078 26.8422C82.5747 27.1487 82.4619 27.4354 82.2694 27.7022L81.6902 27.1486C81.8103 26.9346 81.8576 26.6887 81.8321 26.4107C81.8098 26.1327 81.6711 25.8717 81.4159 25.6277C81.1901 25.4119 80.9358 25.2816 80.6531 25.2367C80.3736 25.1918 80.0847 25.2303 79.7865 25.3523C79.4915 25.4742 79.208 25.6775 78.9358 25.9621C78.6575 26.2533 78.4609 26.5507 78.3461 26.8542C78.2329 27.1593 78.2035 27.4521 78.2578 27.7326C78.3138 28.0147 78.4563 28.2652 78.6853 28.4841C78.8359 28.628 78.9975 28.7324 79.1702 28.7974C79.343 28.8623 79.5188 28.8863 79.6977 28.8695C79.8766 28.8527 80.0497 28.7927 80.2171 28.6897L80.7962 29.2433C80.5508 29.4346 80.2783 29.5575 79.9786 29.6123C79.682 29.667 79.3782 29.6459 79.0671 29.5488C78.7592 29.4517 78.4661 29.2702 78.188 29.0044Z" fill="white"/>
<path d="M84.647 32.4736L82.0283 34.2004L81.5873 33.5315L87.3915 29.7041L87.8326 30.373L85.7013 31.7784L85.7387 31.835C86.0308 31.7888 86.3103 31.8241 86.5771 31.941C86.8471 32.0584 87.0948 32.2882 87.3203 32.6302C87.5159 32.9268 87.6277 33.2258 87.6557 33.5273C87.6855 33.8275 87.6191 34.1193 87.4564 34.4029C87.2967 34.687 87.0299 34.9525 86.6558 35.1992L83.8897 37.0231L83.4486 36.3543L86.1694 34.5602C86.5151 34.3322 86.7233 34.0662 86.7939 33.7621C86.8676 33.4587 86.8004 33.1492 86.5924 32.8336C86.4479 32.6145 86.272 32.4485 86.0648 32.3357C85.8588 32.2248 85.634 32.1779 85.3904 32.1948C85.148 32.2137 84.9002 32.3066 84.647 32.4736Z" fill="white"/>
</svg>
