<svg width="177" height="177" viewBox="0 0 177 177" fill="none" xmlns="http://www.w3.org/2000/svg">
<circle cx="88.5" cy="88.5" r="88.5" fill="#131416"/>
<path d="M76.3307 134.821L56.4894 114.875V41.4255H76.3307M76.3307 134.821V41.4255M76.3307 134.821H112.979V41.4255H76.3307" stroke="white" stroke-width="2"/>
<path d="M59.5022 99.0539V45.1915H72.3065V112.226L59.5022 99.0539Z" stroke="white" stroke-width="2"/>
<path d="M110.719 45.1915H79.0852V131.808H110.719V45.1915Z" stroke="white" stroke-width="2"/>
<path d="M106.2 45.1915H98.6681V131.808H106.2V45.1915Z" stroke="white" stroke-width="2"/>
<path d="M93.0795 52H92.0227C91.9602 51.696 91.8509 51.429 91.6946 51.1989C91.5412 50.9688 91.3537 50.7756 91.1321 50.6193C90.9134 50.4602 90.6705 50.3409 90.4034 50.2614C90.1364 50.1818 89.858 50.142 89.5682 50.142C89.0398 50.142 88.5611 50.2756 88.1321 50.5426C87.706 50.8097 87.3665 51.2031 87.1136 51.723C86.8636 52.2429 86.7386 52.8807 86.7386 53.6364C86.7386 54.392 86.8636 55.0298 87.1136 55.5497C87.3665 56.0696 87.706 56.4631 88.1321 56.7301C88.5611 56.9972 89.0398 57.1307 89.5682 57.1307C89.858 57.1307 90.1364 57.0909 90.4034 57.0114C90.6705 56.9318 90.9134 56.8139 91.1321 56.6577C91.3537 56.4986 91.5412 56.304 91.6946 56.0739C91.8509 55.8409 91.9602 55.5739 92.0227 55.2727H93.0795C93 55.7187 92.8551 56.1179 92.6449 56.4702C92.4347 56.8224 92.1733 57.1222 91.8608 57.3693C91.5483 57.6136 91.1974 57.7997 90.8082 57.9276C90.4219 58.0554 90.0085 58.1193 89.5682 58.1193C88.8239 58.1193 88.1619 57.9375 87.5824 57.5739C87.0028 57.2102 86.5469 56.6932 86.2145 56.0227C85.8821 55.3523 85.7159 54.5568 85.7159 53.6364C85.7159 52.7159 85.8821 51.9205 86.2145 51.25C86.5469 50.5795 87.0028 50.0625 87.5824 49.6989C88.1619 49.3352 88.8239 49.1534 89.5682 49.1534C90.0085 49.1534 90.4219 49.2173 90.8082 49.3452C91.1974 49.473 91.5483 49.6605 91.8608 49.9077C92.1733 50.152 92.4347 50.4503 92.6449 50.8026C92.8551 51.152 93 51.5511 93.0795 52Z" fill="white"/>
<path d="M87.0568 67V58.2727H92.3239V59.2102H88.1136V62.1591H92.0511V63.0966H88.1136V66.0625H92.392V67H87.0568Z" fill="white"/>
<path d="M92.9773 68.2727V77H91.9545L87.1989 70.1477H87.1136V77H86.0568V68.2727H87.0795L91.8523 75.142H91.9375V68.2727H92.9773Z" fill="white"/>
<path d="M86.5795 78.2102V77.2727H93.125V78.2102H90.3807V86H89.3239V78.2102H86.5795Z" fill="white"/>
<path d="M87.0568 95V86.2727H90.0057C90.6875 86.2727 91.2472 86.3892 91.6847 86.6222C92.1222 86.8523 92.446 87.169 92.6562 87.5724C92.8665 87.9759 92.9716 88.4347 92.9716 88.9489C92.9716 89.4631 92.8665 89.919 92.6562 90.3168C92.446 90.7145 92.1236 91.027 91.6889 91.2543C91.2543 91.4787 90.6989 91.5909 90.0227 91.5909H87.6364V90.6364H89.9886C90.4545 90.6364 90.8295 90.5682 91.1136 90.4318C91.4006 90.2955 91.608 90.1023 91.7358 89.8523C91.8665 89.5994 91.9318 89.2983 91.9318 88.9489C91.9318 88.5994 91.8665 88.294 91.7358 88.0327C91.6051 87.7713 91.3963 87.5696 91.1094 87.4276C90.8224 87.2827 90.4432 87.2102 89.9716 87.2102H88.1136V95H87.0568ZM91.1648 91.0795L93.3125 95H92.0852L89.9716 91.0795H91.1648Z" fill="white"/>
<path d="M87.4148 104H86.3068L89.5114 95.2727H90.6023L93.8068 104H92.6989L90.0909 96.6534H90.0227L87.4148 104ZM87.8239 100.591H92.2898V101.528H87.8239V100.591Z" fill="white"/>
<path d="M88.0568 113V104.273H89.1136V112.062H93.1705V113H88.0568Z" fill="white"/>
</svg>
